<svg xmlns="http://www.w3.org/2000/svg" viewBox="0 0 346.47 475.22"><defs><style>.cls-1{fill:#bed3e0;stroke:#5b8698;}.cls-1,.cls-3,.cls-4{stroke-miterlimit:10;}.cls-1,.cls-4{stroke-width:4px;}.cls-2{fill:#5b8698;}.cls-3{fill:none;stroke-width:7px;}.cls-3,.cls-4{stroke:#5e8799;}.cls-4{fill:#fff;}.cls-5{fill:#f9b233;}.cls-6{fill:#009982;}</style></defs><title>socket_03_passport</title><g id="Layer_2" data-name="Layer 2"><g id="Layer_1-2" data-name="Layer 1"><path class="cls-1" d="M2.71,243.08H344.47a0,0,0,0,1,0,0V443a30.27,30.27,0,0,1-30.27,30.27H33A30.27,30.27,0,0,1,2.71,443V243.08a0,0,0,0,1,0,0Z"/><path class="cls-1" d="M2,2H343.76a0,0,0,0,1,0,0V201.87a30.27,30.27,0,0,1-30.27,30.27H32.27A30.27,30.27,0,0,1,2,201.87V2A0,0,0,0,1,2,2Z" transform="translate(345.76 234.14) rotate(-180)"/><path class="cls-2" d="M146.41,118.05c0-3-.09-5.39-.19-7.6H150l.19,4h.1a9.14,9.14,0,0,1,8.27-4.52c5.62,0,9.85,4.76,9.85,11.83,0,8.36-5.09,12.5-10.57,12.5a8.17,8.17,0,0,1-7.17-3.66h-.1v12.65h-4.18Zm4.18,6.2a9.23,9.23,0,0,0,.2,1.73,6.53,6.53,0,0,0,6.34,5c4.48,0,7.07-3.65,7.07-9,0-4.66-2.45-8.65-6.92-8.65a6.75,6.75,0,0,0-6.4,5.24,7,7,0,0,0-.29,1.73Z"/><path class="cls-2" d="M186.65,133.72l-.33-2.93h-.15a8.66,8.66,0,0,1-7.11,3.46c-4.71,0-7.12-3.32-7.12-6.68,0-5.63,5-8.71,14-8.66v-.48c0-1.92-.53-5.39-5.29-5.39a11.55,11.55,0,0,0-6,1.74l-1-2.79a14.49,14.49,0,0,1,7.65-2.07c7.11,0,8.85,4.86,8.85,9.52v8.7a32.69,32.69,0,0,0,.38,5.58ZM186,121.84c-4.62-.09-9.86.72-9.86,5.24a3.75,3.75,0,0,0,4,4,5.79,5.79,0,0,0,5.63-3.89,4.52,4.52,0,0,0,.24-1.35Z"/><path class="cls-2" d="M196.37,129.39a11.05,11.05,0,0,0,5.57,1.68c3.08,0,4.52-1.53,4.52-3.46s-1.2-3.12-4.33-4.28c-4.18-1.49-6.15-3.79-6.15-6.58,0-3.75,3-6.83,8-6.83a11.6,11.6,0,0,1,5.72,1.44l-1.06,3.08a9,9,0,0,0-4.76-1.35c-2.5,0-3.89,1.45-3.89,3.18,0,1.92,1.39,2.78,4.42,3.94,4,1.54,6.11,3.56,6.11,7,0,4.09-3.17,7-8.7,7a13.17,13.17,0,0,1-6.54-1.59Z"/><path class="cls-2" d="M215.4,129.39a11.09,11.09,0,0,0,5.58,1.68c3.08,0,4.52-1.53,4.52-3.46s-1.2-3.12-4.33-4.28c-4.18-1.49-6.15-3.79-6.15-6.58,0-3.75,3-6.83,8-6.83a11.6,11.6,0,0,1,5.72,1.44l-1.06,3.08a9,9,0,0,0-4.76-1.35c-2.5,0-3.89,1.45-3.89,3.18,0,1.92,1.39,2.78,4.42,3.94,4,1.54,6.11,3.56,6.11,7,0,4.09-3.17,7-8.7,7a13.17,13.17,0,0,1-6.54-1.59Z"/><path class="cls-2" d="M235,118.05c0-3-.1-5.39-.19-7.6h3.8l.19,4h.1a9.13,9.13,0,0,1,8.26-4.52c5.63,0,9.86,4.76,9.86,11.83,0,8.36-5.09,12.5-10.58,12.5a8.16,8.16,0,0,1-7.16-3.66h-.1v12.65H235Zm4.18,6.2a9.23,9.23,0,0,0,.2,1.73,6.52,6.52,0,0,0,6.34,5c4.47,0,7.07-3.65,7.07-9,0-4.66-2.45-8.65-6.92-8.65a6.75,6.75,0,0,0-6.4,5.24,7,7,0,0,0-.29,1.73Z"/><path class="cls-2" d="M283.44,121.89c0,8.61-6,12.36-11.59,12.36-6.3,0-11.16-4.62-11.16-12,0-7.79,5.1-12.36,11.54-12.36C278.92,109.92,283.44,114.78,283.44,121.89Zm-18.47.24c0,5.1,2.94,8.94,7.07,8.94s7.07-3.79,7.07-9c0-4-2-9-7-9S265,117.71,265,122.13Z"/><path class="cls-2" d="M288.77,117.71c0-2.74,0-5.1-.19-7.26h3.7l.15,4.57h.19a7,7,0,0,1,6.44-5.1,4.82,4.82,0,0,1,1.2.14v4a6.69,6.69,0,0,0-1.44-.14c-3,0-5.1,2.26-5.67,5.43a11.5,11.5,0,0,0-.2,2v12.41h-4.18Z"/><path class="cls-2" d="M310.74,103.77v6.68h6.06v3.22h-6.06v12.55c0,2.88.82,4.52,3.18,4.52a9.61,9.61,0,0,0,2.45-.29l.19,3.17a10.26,10.26,0,0,1-3.75.58,5.85,5.85,0,0,1-4.57-1.78c-1.2-1.25-1.63-3.32-1.63-6.06V113.67H303v-3.22h3.61v-5.58Z"/><ellipse class="cls-3" cx="81.26" cy="121.51" rx="28.92" ry="47.05"/><circle class="cls-3" cx="80.66" cy="121.51" r="47.05"/><ellipse class="cls-3" cx="81.26" cy="121.66" rx="9.46" ry="46.9"/><ellipse class="cls-3" cx="79.88" cy="121.81" rx="46.62" ry="1.3"/><rect class="cls-4" x="29.89" y="271.63" width="108.41" height="103.81"/><polygon class="cls-2" points="47.38 292.49 47.38 339.16 60.9 339.07 60.9 345.83 74.39 345.83 74.43 352.59 94.76 352.59 94.76 345.83 108.28 345.83 108.28 339.07 121.75 339.11 121.7 292.53 47.38 292.49"/><rect class="cls-5" x="60.9" y="303.26" width="6.76" height="13.52"/><rect class="cls-5" x="74.43" y="303.26" width="6.76" height="13.52"/><rect class="cls-5" x="87.95" y="303.26" width="6.76" height="13.52"/><rect class="cls-5" x="101.47" y="303.26" width="6.76" height="13.52"/><path class="cls-6" d="M180.62,321.48h13.09v2.63h-10v8.07H193v2.6h-9.19v11h-3.14Z"/><path class="cls-6" d="M206.12,345.78l-.26-2.2h-.11a6.48,6.48,0,0,1-5.33,2.59,5,5,0,0,1-5.34-5c0-4.22,3.75-6.52,10.5-6.49v-.36c0-1.44-.4-4-4-4a8.71,8.71,0,0,0-4.54,1.3l-.73-2.09a10.85,10.85,0,0,1,5.74-1.55c5.33,0,6.63,3.64,6.63,7.14v6.52a24.24,24.24,0,0,0,.29,4.19Zm-.47-8.91c-3.46-.07-7.4.54-7.4,3.93a2.81,2.81,0,0,0,3,3,4.35,4.35,0,0,0,4.22-2.92,3.26,3.26,0,0,0,.18-1Z"/><path class="cls-6" d="M213.83,333.05c0-1.8,0-3.28-.14-4.72h2.77l.15,2.81h.11a6,6,0,0,1,5.48-3.21,5.16,5.16,0,0,1,4.94,3.5h.07a7.11,7.11,0,0,1,1.95-2.27,5.9,5.9,0,0,1,3.85-1.23c2.31,0,5.74,1.51,5.74,7.57v10.28h-3.1V335.9c0-3.35-1.23-5.37-3.79-5.37a4.11,4.11,0,0,0-3.75,2.88,5.36,5.36,0,0,0-.25,1.59v10.78h-3.1V335.32c0-2.77-1.23-4.79-3.64-4.79a4.32,4.32,0,0,0-3.93,3.17,4.17,4.17,0,0,0-.26,1.55v10.53h-3.1Z"/><path class="cls-6" d="M247.44,323.42a2,2,0,0,1-3.93,0,1.93,1.93,0,0,1,2-2A1.88,1.88,0,0,1,247.44,323.42Zm-3.53,22.36V328.33h3.17v17.45Z"/><path class="cls-6" d="M252.34,320.18h3.18v25.6h-3.18Z"/><path class="cls-6" d="M262,328.33l3.82,10.31c.4,1.15.83,2.52,1.12,3.57H267c.32-1,.68-2.38,1.12-3.64l3.46-10.24H275l-4.76,12.44c-2.27,6-3.82,9.05-6,10.92a8.66,8.66,0,0,1-3.9,2.06l-.79-2.67a8.48,8.48,0,0,0,2.78-1.55A9.67,9.67,0,0,0,265,346a2.15,2.15,0,0,0,.26-.75,2.9,2.9,0,0,0-.22-.83l-6.45-16.08Z"/><path class="cls-6" d="M185.27,367.46h-7.39v-2.67h18v2.67h-7.43v21.63h-3.17Z"/><path class="cls-6" d="M198.18,371.64,202,382c.4,1.16.83,2.53,1.12,3.57h.07c.33-1,.69-2.38,1.12-3.64l3.46-10.24h3.36l-4.76,12.44c-2.28,6-3.83,9.05-6,10.92a8.58,8.58,0,0,1-3.89,2.06l-.8-2.67a8.38,8.38,0,0,0,2.78-1.55,9.52,9.52,0,0,0,2.67-3.53,2.42,2.42,0,0,0,.25-.76,2.66,2.66,0,0,0-.22-.83l-6.45-16.08Z"/><path class="cls-6" d="M214,377.34c0-2.24-.07-4-.14-5.7h2.84l.15,3h.07a6.88,6.88,0,0,1,6.2-3.39c4.22,0,7.4,3.57,7.4,8.87,0,6.28-3.83,9.38-7.94,9.38a6.13,6.13,0,0,1-5.37-2.74h-.07v9.48H214Zm3.14,4.65a7.4,7.4,0,0,0,.14,1.3,4.9,4.9,0,0,0,4.76,3.71c3.36,0,5.3-2.74,5.3-6.74,0-3.5-1.84-6.49-5.19-6.49a5.08,5.08,0,0,0-4.8,3.93,5.44,5.44,0,0,0-.21,1.3Z"/><path class="cls-6" d="M236.3,380.94c.07,4.29,2.81,6.06,6,6.06a11.55,11.55,0,0,0,4.83-.9l.54,2.27a14.19,14.19,0,0,1-5.8,1.08c-5.37,0-8.58-3.53-8.58-8.8s3.1-9.41,8.18-9.41c5.7,0,7.21,5,7.21,8.22a11.11,11.11,0,0,1-.11,1.48Zm9.3-2.27c0-2-.83-5.16-4.4-5.16-3.21,0-4.62,3-4.87,5.16Z"/><path class="cls-6" d="M180.62,408.39a36.67,36.67,0,0,1,6-.47c3.1,0,5.37.72,6.82,2a6.55,6.55,0,0,1,2.13,5.09,7.15,7.15,0,0,1-1.88,5.19c-1.66,1.76-4.36,2.67-7.43,2.67a10.75,10.75,0,0,1-2.52-.22v9.73h-3.14Zm3.14,11.72a10.5,10.5,0,0,0,2.59.25c3.79,0,6.1-1.84,6.1-5.19s-2.27-4.76-5.74-4.76a13.39,13.39,0,0,0-3,.25Z"/><path class="cls-6" d="M199.12,420.4c0-2.06,0-3.82-.14-5.45h2.77l.11,3.43H202a5.24,5.24,0,0,1,4.84-3.82,3.54,3.54,0,0,1,.9.1v3a4.92,4.92,0,0,0-1.08-.11c-2.24,0-3.83,1.69-4.26,4.07a9.31,9.31,0,0,0-.14,1.48v9.3h-3.14Z"/><path class="cls-6" d="M226.34,423.53c0,6.46-4.47,9.27-8.69,9.27-4.72,0-8.36-3.46-8.36-9,0-5.84,3.82-9.26,8.65-9.26C223,414.56,226.34,418.2,226.34,423.53Zm-13.84.19c0,3.82,2.2,6.7,5.3,6.7s5.3-2.85,5.3-6.78c0-2.95-1.48-6.7-5.23-6.7S212.5,420.4,212.5,423.72Z"/><path class="cls-6" d="M234.17,409.94v5h4.54v2.42h-4.54v9.41c0,2.16.61,3.39,2.38,3.39a7,7,0,0,0,1.84-.22l.14,2.38a7.57,7.57,0,0,1-2.81.43,4.39,4.39,0,0,1-3.43-1.33c-.9-.94-1.22-2.49-1.22-4.54v-9.52h-2.71V415h2.71v-4.18Z"/><path class="cls-6" d="M257.86,423.53c0,6.46-4.47,9.27-8.69,9.27-4.72,0-8.37-3.46-8.37-9,0-5.84,3.83-9.26,8.66-9.26C254.47,414.56,257.86,418.2,257.86,423.53Zm-13.85.19c0,3.82,2.2,6.7,5.3,6.7s5.3-2.85,5.3-6.78c0-2.95-1.47-6.7-5.22-6.7S244,420.4,244,423.72Z"/><path class="cls-6" d="M274.3,431.76a11.77,11.77,0,0,1-5,1c-5.26,0-8.69-3.56-8.69-8.9s3.68-9.27,9.38-9.27a10.6,10.6,0,0,1,4.39.9l-.72,2.46a7.23,7.23,0,0,0-3.67-.83c-4,0-6.17,2.95-6.17,6.6,0,4,2.6,6.52,6.06,6.52a9.11,9.11,0,0,0,3.89-.86Z"/><path class="cls-6" d="M293.59,423.53c0,6.46-4.47,9.27-8.69,9.27-4.72,0-8.36-3.46-8.36-9,0-5.84,3.82-9.26,8.65-9.26C290.2,414.56,293.59,418.2,293.59,423.53Zm-13.84.19c0,3.82,2.2,6.7,5.3,6.7s5.3-2.85,5.3-6.78c0-2.95-1.48-6.7-5.23-6.7S279.75,420.4,279.75,423.72Z"/><path class="cls-6" d="M297.6,406.8h3.17v25.6H297.6Z"/><path class="cls-6" d="M179.55,294.17a11.14,11.14,0,0,0,5.62,1.58c3.21,0,5.08-1.69,5.08-4.14,0-2.28-1.29-3.57-4.57-4.84-4-1.4-6.42-3.46-6.42-6.88,0-3.79,3.13-6.6,7.86-6.6a11.05,11.05,0,0,1,5.37,1.19l-.86,2.56a9.74,9.74,0,0,0-4.62-1.16c-3.32,0-4.58,2-4.58,3.65,0,2.27,1.48,3.39,4.83,4.68,4.11,1.59,6.2,3.57,6.2,7.14,0,3.75-2.77,7-8.51,7a12.63,12.63,0,0,1-6.2-1.55Z"/><path class="cls-6" d="M213.66,289.12c0,6.45-4.47,9.26-8.69,9.26-4.73,0-8.37-3.46-8.37-9,0-5.85,3.82-9.27,8.65-9.27C210.27,280.14,213.66,283.78,213.66,289.12Zm-13.85.18c0,3.82,2.2,6.7,5.3,6.7s5.3-2.84,5.3-6.77c0-3-1.48-6.71-5.23-6.71S199.81,286,199.81,289.3Z"/><path class="cls-6" d="M230.1,297.34a11.73,11.73,0,0,1-5,1c-5.27,0-8.69-3.57-8.69-8.91s3.68-9.26,9.37-9.26a10.46,10.46,0,0,1,4.4.9l-.72,2.45a7.41,7.41,0,0,0-3.68-.83c-4,0-6.16,3-6.16,6.6,0,4,2.59,6.52,6.06,6.52a9,9,0,0,0,3.89-.86Z"/><path class="cls-6" d="M237,288.54H237c.44-.61,1-1.37,1.55-2l5.12-6h3.83l-6.75,7.17L248.45,298H244.6l-6-8.37L237,291.43V298h-3.14v-25.6H237Z"/><path class="cls-6" d="M252.49,289.84c.07,4.29,2.81,6.06,6,6.06a11.37,11.37,0,0,0,4.83-.91l.54,2.28a14.23,14.23,0,0,1-5.8,1.08c-5.38,0-8.59-3.54-8.59-8.8s3.1-9.41,8.19-9.41c5.7,0,7.21,5,7.21,8.22a11.26,11.26,0,0,1-.11,1.48Zm9.31-2.27c0-2-.83-5.16-4.4-5.16-3.21,0-4.62,3-4.87,5.16Z"/><path class="cls-6" d="M272.61,275.52v5h4.55V283h-4.55v9.41c0,2.17.62,3.39,2.38,3.39a7.46,7.46,0,0,0,1.84-.21l.15,2.38a7.89,7.89,0,0,1-2.82.43,4.39,4.39,0,0,1-3.42-1.34c-.9-.93-1.23-2.48-1.23-4.54V283h-2.7v-2.41h2.7v-4.19Z"/><path class="cls-6" d="M177.24,302.49v-1.8H278.09v1.8Z"/></g></g></svg>