<svg xmlns="http://www.w3.org/2000/svg" viewBox="0 0 496.86 293.32"><defs><style>.cls-1{fill:#eaf3f9;}.cls-1,.cls-2{stroke:#1d71b8;stroke-miterlimit:10;}.cls-2{fill:#009fe3;}</style></defs><title>socket_01_egg</title><g id="Layer_2" data-name="Layer 2"><g id="Layer_1-2" data-name="Layer 1"><path class="cls-1" d="M191.32,76c12.17,21.23,33,68.48-18.46,89.75-50.92,21-71.3-31.52-75.38-52.09s-7.24-79.78,18.46-89.74C142.56,13.57,180.25,56.66,191.32,76Z"/><path class="cls-2" d="M22.91,182.49s28.85,50.67,82.84,64.45c64.66,16.51,96-1.19,96-1.19s-61.52-1.34-128.34-33.89A444.76,444.76,0,0,1,22.91,182.49Z"/><path class="cls-2" d="M72.73,171.88c2.43,0,93.55,28.29,163.74,27.85,84.48-.53,165.76-28.46,165.76-28.46s-69.48,57.1-165.15,55.49C157,225.42,72.73,172.35,72.73,171.88Z"/><path class="cls-2" d="M408.42,121.74s53.38,10.43,59.16,25.46c8.91,23.12-42,83.92-42,83.92S515.05,158.2,492.81,130C479.68,113.36,408.42,121.74,408.42,121.74Z"/><path class="cls-2" d="M259.15,232.85c12.05,4.5,64.77,6.08,99.41-10.13,43.41-20.31,87.7-69.33,87.7-69.33s-11.21,64.25-61.91,86C331.38,262.08,259.15,232.85,259.15,232.85Z"/><path class="cls-2" d="M64.25,107.3S.5,116.93.5,139.63c0,28.92,83,60.31,83,60.31s-47.93-22.48-40.36-67.88C47.37,106.73,64.25,107.3,64.25,107.3Z"/><path class="cls-2" d="M46.13,234.9S99.63,273.5,178,274.41c64,.74,108.69-26.78,108.69-26.78S235.75,289,197.41,290.76C97.72,295.44,46.13,234.9,46.13,234.9Z"/><path class="cls-2" d="M341.81,276.75c39.47-8.28,59.05-33.93,59.05-33.93s-6.9,39.46-63.32,48.84c-38.62,6.42-83.89-15.83-83.89-15.83S302.45,285,341.81,276.75Z"/><path d="M132.16,59.6V100h-5.22V59.6Z"/><path d="M141.28,60.08a60.5,60.5,0,0,1,10-.78c5.16,0,8.93,1.2,11.33,3.36a10.87,10.87,0,0,1,3.54,8.46,11.9,11.9,0,0,1-3.12,8.64c-2.76,2.94-7.26,4.44-12.35,4.44a18,18,0,0,1-4.2-.36V100h-5.22Zm5.22,19.5a17.51,17.51,0,0,0,4.32.42c6.3,0,10.14-3.06,10.14-8.64,0-5.34-3.79-7.92-9.55-7.92a21.87,21.87,0,0,0-4.91.42Z"/><path d="M126.5,136l-.17-1.47h-.07a4.31,4.31,0,0,1-3.55,1.73,3.31,3.31,0,0,1-3.56-3.33c0-2.81,2.5-4.35,7-4.32v-.24a2.4,2.4,0,0,0-2.64-2.69,5.8,5.8,0,0,0-3,.86l-.48-1.39a7.18,7.18,0,0,1,3.82-1c3.55,0,4.42,2.42,4.42,4.75v4.34a15.82,15.82,0,0,0,.19,2.79Zm-.31-5.93c-2.31-.05-4.92.36-4.92,2.62a1.87,1.87,0,0,0,2,2,2.9,2.9,0,0,0,2.81-1.94,2.31,2.31,0,0,0,.12-.67Z"/><path d="M141.67,119v14c0,1,0,2.21.09,3h-1.89l-.1-2h-.05a4.29,4.29,0,0,1-4,2.28c-2.81,0-5-2.37-5-5.9,0-3.87,2.38-6.24,5.21-6.24a3.9,3.9,0,0,1,3.51,1.77h0V119Zm-2.12,10.15a3.9,3.9,0,0,0-.09-.89,3.12,3.12,0,0,0-3.05-2.45c-2.18,0-3.48,1.92-3.48,4.49,0,2.35,1.15,4.3,3.43,4.3a3.18,3.18,0,0,0,3.1-2.52,3.8,3.8,0,0,0,.09-.91Z"/><path d="M155.2,119v14c0,1,0,2.21.1,3h-1.9l-.09-2h-.05a4.3,4.3,0,0,1-4,2.28c-2.81,0-5-2.37-5-5.9,0-3.87,2.38-6.24,5.21-6.24a3.9,3.9,0,0,1,3.5,1.77h.05V119Zm-2.11,10.15a3.42,3.42,0,0,0-.1-.89,3.1,3.1,0,0,0-3-2.45c-2.19,0-3.48,1.92-3.48,4.49,0,2.35,1.15,4.3,3.43,4.3a3.17,3.17,0,0,0,3.09-2.52,3.34,3.34,0,0,0,.1-.91Z"/><path d="M158.71,128.05c0-1.37,0-2.55-.1-3.63h1.85l.07,2.28h.1a3.47,3.47,0,0,1,3.21-2.54,2.2,2.2,0,0,1,.6.07v2a3,3,0,0,0-.72-.07,3,3,0,0,0-2.83,2.71,5.81,5.81,0,0,0-.1,1V136h-2.08Z"/><path d="M167.49,130.61a3.72,3.72,0,0,0,4,4,7.72,7.72,0,0,0,3.22-.6l.36,1.51a9.5,9.5,0,0,1-3.86.72c-3.58,0-5.72-2.35-5.72-5.86s2.07-6.26,5.45-6.26c3.79,0,4.8,3.33,4.8,5.47a8.79,8.79,0,0,1-.07,1Zm6.19-1.51c0-1.34-.55-3.43-2.93-3.43-2.13,0-3.07,2-3.24,3.43Z"/><path d="M178.05,133.88a5.51,5.51,0,0,0,2.78.84c1.54,0,2.26-.77,2.26-1.73s-.6-1.56-2.16-2.14c-2.09-.74-3.07-1.89-3.07-3.28,0-1.88,1.51-3.41,4-3.41a5.73,5.73,0,0,1,2.85.72l-.53,1.53a4.46,4.46,0,0,0-2.37-.67c-1.25,0-1.95.72-1.95,1.59s.7,1.39,2.21,2c2,.77,3,1.78,3,3.51,0,2-1.58,3.48-4.34,3.48a6.64,6.64,0,0,1-3.27-.79Z"/><path d="M187.55,133.88a5.55,5.55,0,0,0,2.79.84c1.53,0,2.25-.77,2.25-1.73s-.6-1.56-2.16-2.14c-2.08-.74-3.07-1.89-3.07-3.28,0-1.88,1.51-3.41,4-3.41a5.74,5.74,0,0,1,2.86.72l-.53,1.53a4.53,4.53,0,0,0-2.38-.67c-1.25,0-1.94.72-1.94,1.59s.69,1.39,2.21,2c2,.77,3,1.78,3,3.51,0,2-1.58,3.48-4.34,3.48a6.67,6.67,0,0,1-3.27-.79Z"/><path class="cls-1" d="M384.91,89.2c1.39,26.64-2,82.77-67,77C253.57,160.57,260.3,99.58,267,77.69s34.93-80.54,67-77C367.29,4.28,383.65,65,384.91,89.2Z"/><path d="M279.61,76a60.5,60.5,0,0,1,10-.78c5.16,0,8.94,1.2,11.34,3.36A10.87,10.87,0,0,1,304.51,87a11.9,11.9,0,0,1-3.12,8.64c-2.76,2.94-7.26,4.44-12.36,4.44a18,18,0,0,1-4.2-.36v16.2h-5.22Zm5.22,19.5a17.51,17.51,0,0,0,4.32.42c6.3,0,10.14-3.06,10.14-8.64,0-5.34-3.78-7.92-9.54-7.92a21.91,21.91,0,0,0-4.92.42Z"/><path d="M336.13,101.15c0,10.74-7.44,15.42-14.46,15.42-7.86,0-13.92-5.76-13.92-14.94,0-9.72,6.36-15.42,14.4-15.42C330.49,86.21,336.13,92.27,336.13,101.15Zm-23,.3c0,6.36,3.66,11.16,8.82,11.16s8.82-4.74,8.82-11.28c0-4.92-2.46-11.16-8.7-11.16S313.09,95.93,313.09,101.45Z"/><path d="M342.79,95.93c0-3.42-.06-6.36-.24-9.06h4.62l.18,5.7h.24c1.32-3.9,4.5-6.36,8-6.36a5.71,5.71,0,0,1,1.5.18v5a7.93,7.93,0,0,0-1.8-.18c-3.72,0-6.36,2.82-7.08,6.78a14.86,14.86,0,0,0-.24,2.46v15.48h-5.22Z"/><path d="M370.21,78.53v8.34h7.56v4h-7.56v15.66c0,3.6,1,5.64,4,5.64a11.75,11.75,0,0,0,3.06-.36l.24,4a12.93,12.93,0,0,1-4.68.72,7.32,7.32,0,0,1-5.7-2.22c-1.5-1.56-2-4.14-2-7.56V90.89h-4.5v-4h4.5v-7Z"/><path d="M288.9,143.44c0-1.2,0-2.19-.1-3.15h1.87l.12,1.92h0a4.28,4.28,0,0,1,3.84-2.18c1.61,0,4.11,1,4.11,4.94v6.94h-2.12v-6.7c0-1.87-.69-3.43-2.68-3.43a3,3,0,0,0-2.84,2.16,3.28,3.28,0,0,0-.14,1v7H288.9Z"/><path d="M311.94,148.74c0,1.2,0,2.26.09,3.17h-1.87L310,150H310a4.35,4.35,0,0,1-3.84,2.16c-1.82,0-4-1-4-5.08v-6.8h2.12v6.44c0,2.2.67,3.69,2.59,3.69a3,3,0,0,0,3-3v-7.13h2.11Z"/><path d="M315.44,143.44c0-1.2,0-2.19-.1-3.15h1.85l.1,1.88h.07A4,4,0,0,1,321,140a3.45,3.45,0,0,1,3.29,2.33h.05a4.74,4.74,0,0,1,1.29-1.51,4,4,0,0,1,2.57-.82c1.54,0,3.82,1,3.82,5v6.84H330v-6.58c0-2.23-.81-3.57-2.52-3.57a2.73,2.73,0,0,0-2.49,1.92,3.35,3.35,0,0,0-.17,1v7.18h-2.07v-7c0-1.85-.81-3.19-2.42-3.19a3.15,3.15,0,0,0-2.79,3.14v7h-2.06Z"/><path d="M335.36,151.91c.05-.79.1-2,.1-3v-14h2.08v7.3h0a4.33,4.33,0,0,1,4-2.14c2.88,0,4.92,2.4,4.9,5.93,0,4.15-2.62,6.21-5.21,6.21a4.14,4.14,0,0,1-3.89-2.18h-.07l-.1,1.92Zm2.18-4.66a3.77,3.77,0,0,0,.1.77,3.25,3.25,0,0,0,3.17,2.47c2.21,0,3.53-1.8,3.53-4.46,0-2.33-1.2-4.32-3.46-4.32a3.37,3.37,0,0,0-3.22,2.59,4.8,4.8,0,0,0-.12.87Z"/><path d="M350.29,146.49a3.72,3.72,0,0,0,4,4,7.75,7.75,0,0,0,3.22-.6l.36,1.51a9.39,9.39,0,0,1-3.87.72c-3.57,0-5.71-2.35-5.71-5.86s2.07-6.26,5.45-6.26c3.79,0,4.8,3.34,4.8,5.47a9.22,9.22,0,0,1-.07,1Zm6.19-1.52c0-1.34-.55-3.43-2.93-3.43-2.13,0-3.07,2-3.24,3.43Z"/><path d="M361.14,143.92c0-1.37,0-2.55-.1-3.63h1.85l.07,2.28h.1a3.47,3.47,0,0,1,3.21-2.54,2.2,2.2,0,0,1,.6.07v2a3.65,3.65,0,0,0-.72-.07,3,3,0,0,0-2.83,2.71,5.81,5.81,0,0,0-.1,1v6.19h-2.08Z"/></g></g></svg>